<svg xmlns="http://www.w3.org/2000/svg" viewBox="0 0 293.6319 100.9275"><defs><style>.a,.b,.c,.d{fill:none;stroke:#fff;stroke-miterlimit:10;}.a{stroke-width:2.2764px;}.b{stroke-width:2.3613px;}.c{stroke-width:2.2445px;}.d{stroke-width:2.8455px;}.e{fill:#fff;}</style></defs><title>SCDI Logo</title><line class="a" x1="14.6755" y1="81.5665" x2="14.6755" y2="88.1129"/><line class="a" x1="30.0566" y1="81.5665" x2="30.0566" y2="85.8466"/><line class="a" x1="22.3889" y1="81.5665" x2="22.3889" y2="85.8466"/><line class="a" x1="37.76" y1="81.5665" x2="37.76" y2="88.1129"/><line class="a" x1="44.8985" y1="81.5665" x2="44.8985" y2="92.986"/><line class="a" x1="7.6007" y1="81.5665" x2="7.6007" y2="92.986"/><polyline class="b" points="40.595 3.259 40.595 12.018 11.891 12.018 11.891 3.259"/><line class="b" x1="17.4363" y1="19.5647" x2="17.4363" y2="28.1893"/><line class="b" x1="23.3345" y1="19.5647" x2="23.3345" y2="28.1893"/><line class="b" x1="29.0979" y1="19.5647" x2="29.0979" y2="28.1893"/><line class="b" x1="34.9961" y1="19.5647" x2="34.9961" y2="28.1893"/><line class="b" x1="40.5946" y1="12.0182" x2="40.5946" y2="76.8476"/><line class="b" x1="11.8908" y1="12.0182" x2="11.8908" y2="76.8476"/><line class="c" x1="36.0797" y1="36.2906" x2="16.3526" y2="49.8115"/><line class="c" x1="16.3526" y1="36.2906" x2="36.0797" y2="49.8115"/><line class="c" x1="36.0797" y1="55.0724" x2="16.3526" y2="68.5933"/><line class="c" x1="16.3526" y1="55.0724" x2="36.0797" y2="68.5933"/><circle class="d" cx="40.5946" cy="77.5583" r="0.893"/><circle class="d" cx="11.8908" cy="77.4354" r="0.893"/><circle class="d" cx="11.8591" cy="2.3157" r="0.893"/><circle class="d" cx="40.6401" cy="2.3157" r="0.893"/><path class="b" d="M2.3512,3.2588v96.488H7.1526c5.66-11.6252,19.1359-10.9659,19.1359-10.9659,15.0931,0,18.7316,10.9659,18.7316,10.9659h5.1634V3.2588"/><circle class="d" cx="2.3157" cy="2.3658" r="0.893"/><circle class="d" cx="50.1835" cy="2.3157" r="0.893"/><path class="e" d="M68.9894,39.2154l2.9194-.7881c.1748,2.54.8169,5.0786,3.3564,5.0786,1.6934,0,2.5982-.9628,2.5982-2.7729,0-2.1309-1.08-3.24-2.5689-4.5537l-3.97-3.5025a6.2188,6.2188,0,0,1-2.2768-5.2251c0-3.4736,2.1308-5.4584,5.5459-5.4584,3.7656,0,5.5756,1.9555,5.955,6.1005l-2.8022.7588c-.1753-2.3349-.7007-4.32-3.1528-4.32a2.34,2.34,0,0,0-2.5977,2.5977,3.7487,3.7487,0,0,0,1.5469,3.2109l3.999,3.5029a8.7526,8.7526,0,0,1,3.3862,6.626,5.3235,5.3235,0,0,1-5.6631,5.6338C71.15,46.1041,69.2233,43.3018,68.9894,39.2154Z"/><path class="e" d="M82.8859,42.1637c0-4.2037,3.0356-5.43,6.6552-6.86V34.107c0-2.0434-.2334-3.0356-1.6928-3.0356-1.2847,0-1.7808.9341-1.7808,2.3935v.8462l-3.0942-.1167c.0585-3.7363,1.6347-5.4585,5.0791-5.4585,3.3276,0,4.6123,1.8682,4.6123,5.3418v7.7061a30.2346,30.2346,0,0,0,.2915,4.0576h-2.86c-.1167-.6128-.3213-1.6929-.4087-2.481a3.5755,3.5755,0,0,1-3.4155,2.7144C84.2867,46.0748,82.8859,44.1485,82.8859,42.1637Zm6.6552-.1753V37.2013c-1.9267,1.1088-3.5322,2.0429-3.5322,3.999,0,1.3721.5254,2.1889,1.4888,2.1889A2.9417,2.9417,0,0,0,89.5411,41.9884Z"/><path class="e" d="M95.3517,39.3614V35.4791c0-4.2329.8462-6.7432,4.9331-6.7432,3.6777,0,4.6118,1.8389,4.6118,5.3125v.9927H102.065V34.02c0-2.1894-.3793-2.9775-1.7514-2.9775-1.5469,0-1.8389.9341-1.8389,3.7944V40.15c0,2.89.4673,3.62,1.8682,3.62,1.5473,0,1.7221-1.1967,1.7221-2.9194V39.4781h2.8316v1.1675c0,3.415-.9927,5.4292-4.6118,5.4292C96.14,46.0748,95.3517,43.4185,95.3517,39.3614Z"/><path class="e" d="M107.7589,28.9693h3.123v2.3941c1.2261-2.0435,2.4815-2.5982,3.7364-2.5982a3.36,3.36,0,0,1,.4961.0293v3.4444a5.15,5.15,0,0,0-1.7222-.35,2.7313,2.7313,0,0,0-2.51,1.6342V45.8414h-3.123Z"/><path class="e" d="M116.6925,42.1637c0-4.2037,3.0356-5.43,6.6553-6.86V34.107c0-2.0434-.2334-3.0356-1.6929-3.0356-1.2847,0-1.7808.9341-1.7808,2.3935v.8462l-3.0942-.1167c.0586-3.7363,1.6348-5.4585,5.0791-5.4585,3.3276,0,4.6123,1.8682,4.6123,5.3418v7.7061a30.2346,30.2346,0,0,0,.2915,4.0576h-2.86c-.1167-.6128-.3213-1.6929-.4087-2.481a3.5756,3.5756,0,0,1-3.4156,2.7144C118.0934,46.0748,116.6925,44.1485,116.6925,42.1637Zm6.6553-.1753V37.2013c-1.9268,1.1088-3.5323,2.0429-3.5323,3.999,0,1.3721.5254,2.1889,1.4888,2.1889A2.9419,2.9419,0,0,0,123.3478,41.9884Z"/><path class="e" d="M129.4791,28.9693h2.89v1.6055a5.2528,5.2528,0,0,1,3.97-1.897,2.6412,2.6412,0,0,1,2.7436,2.1309,5.33,5.33,0,0,1,4.2036-2.1309c1.6343,0,2.9771,1.1089,2.9771,3.9112V45.8414h-2.86V32.7935c0-1.6347-.5839-2.0727-1.4594-2.0727a3.8872,3.8872,0,0,0-2.6275,1.3721V45.8414h-2.86V32.7935c0-1.6347-.584-2.0727-1.46-2.0727a3.9438,3.9438,0,0,0-2.627,1.3721V45.8414h-2.89Z"/><path class="e" d="M149.01,39.3321v-3.853c0-4.4663,1.1084-6.7432,4.9912-6.7432,4.2324,0,4.7871,2.7442,4.7871,7.356V37.464h-6.6553V40.85c0,2.0435.5547,2.9194,1.8975,2.9194,1.4,0,1.6924-1.08,1.6924-2.7734V39.9742h3.0361v.6421c0,3.3862-1.3135,5.4585-4.7578,5.4585C150.0314,46.0748,149.01,43.74,149.01,39.3321Zm6.7129-3.5615V34.253c0-2.0727-.2041-3.2109-1.751-3.2109-1.5176,0-1.8389.9048-1.8389,3.8237v.9048Z"/><path class="e" d="M161.6212,28.9693h3.123v1.6641a6.0516,6.0516,0,0,1,4.1153-1.8975c2.0146,0,2.54,1.81,2.54,3.4444V45.8414h-3.123V33.0855c0-1.1967-.2627-1.8974-1.3428-1.8974a3.8085,3.8085,0,0,0-2.1895,1.0508V45.8414h-3.123Z"/><path class="e" d="M175.2833,42.0465V31.0421h-1.78V28.9693h1.78V24.0362h3.1231v4.9331h2.7148v2.0728h-2.7148v10.8c0,1.3134.3212,1.8388,1.5468,1.8388a8.4576,8.4576,0,0,0,1.1387-.0874V45.9a13.4817,13.4817,0,0,1-2.16.1748C176.2755,46.0748,175.2833,44.4986,175.2833,42.0465Z"/><path class="e" d="M183.1368,39.8575V34.9537c0-3.7949,1.168-6.2178,4.9336-6.2178,3.7363,0,4.9033,2.4229,4.9033,6.2178v4.9038c0,3.7944-1.167,6.2173-4.9033,6.2173C184.3048,46.0748,183.1368,43.6519,183.1368,39.8575Zm6.7139.2041V34.7784c0-1.8975,0-3.7363-1.78-3.7363-1.8105,0-1.8105,1.8388-1.8105,3.7363v5.2832c0,1.8975,0,3.7075,1.8105,3.7075C189.8507,43.7691,189.8507,41.9591,189.8507,40.0616Z"/><path class="e" d="M202.3458,38.252V29.9034c0-4.7871,1.3428-7.91,6.3633-7.91,4.4072,0,5.9551,2.54,5.9551,6.8012v1.8682H211.54V28.9986c0-2.6269-.0576-4.437-2.8017-4.437-2.8027,0-3.0654,1.9268-3.0654,4.8457v9.37c0,3.5611.788,4.7285,3.0654,4.7285,2.6562,0,2.8017-1.8969,2.8017-4.6992V37.0553h3.1241v1.7514c0,4.3491-1.3135,7.2974-5.9551,7.2974C203.6886,46.1041,202.3458,42.66,202.3458,38.252Z"/><path class="e" d="M217.2638,39.8575V34.9537c0-3.7949,1.1679-6.2178,4.9336-6.2178,3.7363,0,4.9033,2.4229,4.9033,6.2178v4.9038c0,3.7944-1.167,6.2173-4.9033,6.2173C218.4317,46.0748,217.2638,43.6519,217.2638,39.8575Zm6.7138.2041V34.7784c0-1.8975,0-3.7363-1.78-3.7363-1.8106,0-1.8106,1.8388-1.8106,3.7363v5.2832c0,1.8975,0,3.7075,1.8106,3.7075C223.9776,43.7691,223.9776,41.9591,223.9776,40.0616Z"/><path class="e" d="M229.6124,42.1637c0-4.2037,3.0361-5.43,6.6553-6.86V34.107c0-2.0434-.2334-3.0356-1.6924-3.0356-1.2842,0-1.7812.9341-1.7812,2.3935v.8462L229.7,34.1944c.0586-3.7363,1.6348-5.4585,5.0791-5.4585,3.3281,0,4.6123,1.8682,4.6123,5.3418v7.7061a30.1425,30.1425,0,0,0,.292,4.0576h-2.8613c-.1162-.6128-.32-1.6929-.4082-2.481a3.5755,3.5755,0,0,1-3.4151,2.7144C231.0138,46.0748,229.6124,44.1485,229.6124,42.1637Zm6.6553-.1753V37.2013c-1.9258,1.1088-3.5313,2.0429-3.5313,3.999,0,1.3721.5254,2.1889,1.4883,2.1889A2.94,2.94,0,0,0,236.2677,41.9884Z"/><path class="e" d="M242.6915,22.1974h3.1231v23.644h-3.1231Z"/><path class="e" d="M249.2882,23.19h3.124v3.2691h-3.124Zm0,5.7793h3.124V45.8414h-3.124Z"/><path class="e" d="M256.6163,42.0465V31.0421h-1.78V28.9693h1.78V24.0362h3.1231v4.9331h2.7148v2.0728h-2.7148v10.8c0,1.3134.3213,1.8388,1.5468,1.8388a8.4576,8.4576,0,0,0,1.1387-.0874V45.9a13.4814,13.4814,0,0,1-2.16.1748C257.6085,46.0748,256.6163,44.4986,256.6163,42.0465Z"/><path class="e" d="M264.9659,23.19H268.09v3.2691h-3.1241Zm0,5.7793H268.09V45.8414h-3.1241Z"/><path class="e" d="M271.1544,39.8575V34.9537c0-3.7949,1.168-6.2178,4.9336-6.2178,3.7363,0,4.9033,2.4229,4.9033,6.2178v4.9038c0,3.7944-1.167,6.2173-4.9033,6.2173C272.3224,46.0748,271.1544,43.6519,271.1544,39.8575Zm6.7139.2041V34.7784c0-1.8975,0-3.7363-1.78-3.7363-1.8105,0-1.8105,1.8388-1.8105,3.7363v5.2832c0,1.8975,0,3.7075,1.8105,3.7075C277.8683,43.7691,277.8683,41.9591,277.8683,40.0616Z"/><path class="e" d="M283.8536,28.9693h3.1231v1.6641a6.0515,6.0515,0,0,1,4.1162-1.8975c2.0137,0,2.539,1.81,2.539,3.4444V45.8414h-3.123V33.0855c0-1.1967-.2627-1.8974-1.3428-1.8974a3.8136,3.8136,0,0,0-2.1894,1.0508V45.8414h-3.1231Z"/><path class="e" d="M70.42,66.3082H68.4059V64.0025H70.42V63.127c0-3.1235.4668-5.05,3.6485-5.05a9.3266,9.3266,0,0,1,2.0434.2041v2.2769a5.337,5.337,0,0,0-1.1675-.146c-1.226,0-1.4013.876-1.4013,2.1894v1.4009h2.5688v2.3057H73.5431V80.8746H70.42Z"/><path class="e" d="M77.5138,74.89V69.9869c0-3.7949,1.1679-6.2178,4.9331-6.2178,3.7363,0,4.9043,2.4229,4.9043,6.2178V74.89c0,3.7949-1.168,6.2178-4.9043,6.2178C78.6817,81.108,77.5138,78.6851,77.5138,74.89Zm6.7138.2041V69.8111c0-1.8974,0-3.7363-1.7807-3.7363-1.81,0-1.81,1.8389-1.81,3.7363v5.2832c0,1.8975,0,3.708,1.81,3.708C84.2276,78.8023,84.2276,76.9918,84.2276,75.0943Z"/><path class="e" d="M90.3009,64.0025h3.123v2.3936c1.2261-2.043,2.4815-2.5977,3.7364-2.5977a3.36,3.36,0,0,1,.4961.0293v3.4444a5.137,5.137,0,0,0-1.7222-.3506,2.7319,2.7319,0,0,0-2.51,1.6347V80.8746h-3.123Z"/><path class="e" d="M106.5318,57.2306H111.67c5.2539,0,7.0054,2.4228,7.0054,7.2094v8.6992c0,5.0206-1.78,7.7354-6.7427,7.7354h-5.4Zm5.167,21.28c3.59,0,3.6485-2.16,3.6485-5.9843V64.8492c0-3.6489-.35-5.1665-3.7364-5.1665h-1.78V78.51Z"/><path class="e" d="M121.859,58.2232h3.123v3.2691h-3.123Zm0,5.7793h3.123V80.8746h-3.123Z"/><path class="e" d="M127.3473,82.9176a3.6774,3.6774,0,0,1,2.4223-3.24,1.9616,1.9616,0,0,1-1.6342-1.8095c0-1.2549.7-2.0137,1.8681-3.0655-1.2846-.9629-1.956-2.3349-1.956-5.02,0-3.94,1.6347-6.0127,4.7583-6.0127,1.8095,0,2.89.6416,3.4736,1.8682a6.8471,6.8471,0,0,1,2.2769-1.752l.4668-.2036.788,2.0142a11.2892,11.2892,0,0,0-2.86,1.08,10.6829,10.6829,0,0,1,.5254,3.0937c0,3.4444-1.1387,5.8379-4.67,5.8379a7.357,7.357,0,0,1-1.6055-.2041,2.6643,2.6643,0,0,0-.5547,1.2842c0,.4375.4087.6719,1.4009.7588l2.6274.2334c2.6563.2334,3.9112,1.5761,3.9112,4.1162,0,2.7734-1.9263,4.2031-5.8672,4.2031C129.6529,86.0992,127.3473,85.1949,127.3473,82.9176Zm8.8442-.9336c0-1.0225-.4668-1.5479-2.3056-1.7227l-2.6563-.2334a3.2264,3.2264,0,0,0-1.2554,2.1016c0,1.0215.7007,1.5176,2.9776,1.5176C135.17,83.6471,136.1915,83.151,136.1915,81.984ZM134.82,69.7818c0-2.3642-.2339-3.8525-1.9853-3.8525s-2.0723,1.4-2.0723,3.8525c0,2.1016.292,3.7364,2.0435,3.7364C134.586,73.5182,134.82,72.1461,134.82,69.7818Z"/><path class="e" d="M141.2433,58.2232h3.123v3.2691h-3.123Zm0,5.7793h3.123V80.8746h-3.123Z"/><path class="e" d="M148.57,77.08V66.0748H146.79V64.0025H148.57V59.0694h3.1231v4.9331h2.7148v2.0723h-2.7148V76.8756c0,1.3135.3213,1.8388,1.5468,1.8388a8.41,8.41,0,0,0,1.1387-.0878v2.3066a13.5393,13.5393,0,0,1-2.16.1748C149.5626,81.108,148.57,79.5318,148.57,77.08Z"/><path class="e" d="M156.3653,77.1969c0-4.2041,3.0362-5.43,6.6553-6.86V69.14c0-2.0439-.2334-3.0361-1.6924-3.0361-1.2851,0-1.7812.9346-1.7812,2.3935v.8467l-3.0938-.1172c.0586-3.7363,1.6348-5.458,5.0791-5.458,3.3272,0,4.6114,1.8682,4.6114,5.3418V76.817a30.2969,30.2969,0,0,0,.292,4.0576h-2.86c-.1162-.6133-.3213-1.6934-.4082-2.4814a3.5771,3.5771,0,0,1-3.416,2.7148C157.7667,81.108,156.3653,79.1812,156.3653,77.1969Zm6.6553-.1758V72.234c-1.9267,1.1093-3.5322,2.0429-3.5322,3.999,0,1.3721.5254,2.1895,1.4892,2.1895A2.9411,2.9411,0,0,0,163.0206,77.0211Z"/><path class="e" d="M169.4435,57.2306h3.123v23.644h-3.123Z"/><path class="e" d="M182.9591,57.2306h3.24v23.644h-3.24Z"/><path class="e" d="M189.7618,64.0025h3.1231v1.6641a6.0515,6.0515,0,0,1,4.1162-1.8975c2.0137,0,2.539,1.81,2.539,3.4444V80.8746h-3.123V68.1187c0-1.1972-.2627-1.8974-1.3428-1.8974a3.8136,3.8136,0,0,0-2.1894,1.0508V80.8746h-3.1231Z"/><path class="e" d="M202.2569,74.3941V70.5123c0-4.2334.8467-6.7432,4.9336-6.7432,3.6778,0,4.6123,1.8389,4.6123,5.3125v.9922h-2.832V69.0523c0-2.1894-.3789-2.9775-1.751-2.9775-1.5478,0-1.8388.9346-1.8388,3.7949v5.3125c0,2.89.4668,3.62,1.8681,3.62,1.5469,0,1.7217-1.1972,1.7217-2.92V74.5113h2.832v1.167c0,3.415-.9931,5.43-4.6123,5.43C203.045,81.108,202.2569,78.4517,202.2569,74.3941Z"/><path class="e" d="M214.8683,57.2306h3.123v23.644h-3.123Z"/><path class="e" d="M221.1456,77.6637V64.0025h3.1231V76.7291c0,1.1973.2627,1.9267,1.3427,1.9267a3.8139,3.8139,0,0,0,2.19-1.0507V64.0025h3.123V80.8746h-3.123V79.2105a6.0519,6.0519,0,0,1-4.1162,1.8975C221.671,81.108,221.1456,79.2984,221.1456,77.6637Z"/><path class="e" d="M233.26,76.38l2.5986-.7881c.291,2.1592.9922,3.2109,2.4219,3.2109a1.6122,1.6122,0,0,0,1.7226-1.7812,3.13,3.13,0,0,0-1.372-2.51l-2.89-2.4814a5.0166,5.0166,0,0,1-2.0722-4.1162c0-2.6563,1.7216-4.1446,4.3486-4.1446,2.6855,0,4.0869,1.9844,4.291,4.4366l-2.1016.788c-.2334-1.7509-.73-2.9189-2.0722-2.9189a1.6411,1.6411,0,0,0-1.6641,1.7227,2.2122,2.2122,0,0,0,.8467,1.6923l2.9775,2.7442a5.9743,5.9743,0,0,1,2.3936,4.5537c0,2.89-1.8975,4.32-4.6709,4.32S233.4933,79.2105,233.26,76.38Z"/><path class="e" d="M245.23,58.2232h3.124v3.2691H245.23Zm0,5.7793h3.124V80.8746H245.23Z"/><path class="e" d="M251.4181,74.89V69.9869c0-3.7949,1.1679-6.2178,4.9336-6.2178,3.7363,0,4.9033,2.4229,4.9033,6.2178V74.89c0,3.7949-1.167,6.2178-4.9033,6.2178C252.586,81.108,251.4181,78.6851,251.4181,74.89Zm6.7138.2041V69.8111c0-1.8974,0-3.7363-1.78-3.7363-1.8106,0-1.8106,1.8389-1.8106,3.7363v5.2832c0,1.8975,0,3.708,1.8106,3.708C258.1319,78.8023,258.1319,76.9918,258.1319,75.0943Z"/><path class="e" d="M264.1173,64.0025h3.123v1.6641a6.0519,6.0519,0,0,1,4.1163-1.8975c2.0136,0,2.539,1.81,2.539,3.4444V80.8746h-3.123V68.1187c0-1.1972-.2627-1.8974-1.3428-1.8974a3.8141,3.8141,0,0,0-2.19,1.0508V80.8746h-3.123Z"/></svg>